<svg xmlns="http://www.w3.org/2000/svg" xml:space="preserve" width="482.554" height="470.18" viewBox="0 0 127.676 124.402"><path d="M75.609 100.14h81.195v74.438a31.395 31.395 135 0 1-31.395 31.396H50.97v-81.196a24.638 24.638 135 0 1 24.638-24.638z" style="fill:#22a060;stroke-width:.264583" transform="translate(-42.482 -100.14)"/><path d="m42.315 234.548 1.703-6.56q.693-2.68 4.507-2.686h3.659q.251 0 .414.193.17.193.17.448v8.605q0 .27-.19.455-.19.18-.455.18h-1.276q-.278 0-.462-.18-.176-.186-.176-.468v-1.737h-4.826l-.455 1.737q-.068.282-.305.468-.238.18-.503.18h-1.337q-.265 0-.38-.152-.115-.159-.115-.276.006-.117.027-.207zm3.57-3.7h4.324v-3.596h-1.935q-.651 0-1.14.379-.482.372-.652 1.006zm9.523 3.17q-1.256-1.22-1.256-3.77 0-2.555 1.256-3.775 1.263-1.226 3.78-1.226h1.515q1.54 0 2.721.813 1.188.813 1.188 2.225 0 .407-.237.586-.238.172-.462.172h-.808q-.624 0-.97-.758-.503-1.088-1.67-1.088h-1.208q-1.487 0-2.016.647-.53.648-.53 2.398t.53 2.405q.53.647 2.016.647h1.35q1.168 0 1.663-1.088.347-.765.978-.765h.808q.319 0 .502.241.19.241.19.524 0 1.412-1.181 2.225-1.181.806-2.722.806H59.19q-2.518 0-3.78-1.22zm9.686-7.414v-.648q0-.282.183-.468.184-.186.462-.186h8.614q.278 0 .461.186t.183.468v.648q0 .282-.183.469-.183.179-.461.179h-3.028v7.296q0 .27-.19.455-.183.18-.448.18h-1.283q-.264 0-.454-.18-.184-.186-.184-.455v-7.296H65.74q-.278 0-.462-.18-.183-.186-.183-.468zm11.01 7.917v-8.55q0-.283.183-.476t.448-.193h2.763q.264 0 .502.193.237.193.319.461l2.002 5.885 2.003-5.885q.081-.268.319-.461.237-.193.502-.193h2.762q.265 0 .442.193.183.193.183.475v8.55q0 .283-.19.476-.183.186-.448.186h-1.222q-.265 0-.455-.186-.183-.193-.183-.475v-6.732l-2.396 6.773q-.095.255-.333.441-.237.18-.502.18h-.97q-.265 0-.503-.18-.23-.186-.332-.44l-2.39-6.774v6.732q0 .282-.19.475-.183.186-.448.186H76.75q-.265 0-.455-.186-.19-.193-.19-.475zm13.575.027 1.704-6.559q.692-2.68 4.507-2.687h3.658q.251 0 .414.193.17.193.17.448v8.605q0 .27-.19.455-.19.18-.455.18h-1.276q-.278 0-.461-.18-.177-.186-.177-.468v-1.737h-4.826l-.455 1.737q-.068.282-.305.468-.238.18-.502.18h-1.338q-.264 0-.38-.152-.115-.159-.115-.276.007-.117.027-.207zm3.57-3.7h4.324v-3.596H95.64q-.652 0-1.14.379-.483.372-.652 1.006zm12.856-4.244v-.648q0-.282.183-.468.184-.186.462-.186h8.614q.278 0 .461.186t.183.468v.648q0 .283-.183.469-.183.179-.461.179h-3.028v7.296q0 .27-.19.455-.183.18-.448.18h-1.283q-.264 0-.454-.18-.184-.186-.184-.455v-7.296h-3.027q-.278 0-.462-.18-.183-.185-.183-.468zm11.01 7.93v-8.578q0-.268.183-.461t.448-.193h5.179q4.106 0 4.106 3.844 0 3.838-4.106 3.838h-3.251v1.55q0 .27-.19.462-.184.186-.448.186h-1.276q-.265 0-.455-.186-.19-.193-.19-.461zm2.559-3.5h2.477q1.14 0 1.731-.385.59-.393.59-1.503 0-1.116-.59-1.502-.59-.392-1.73-.392h-2.478zm8.606 3.487v-8.578q0-.27.19-.455.19-.186.455-.186h7.826q.265 0 .448.193.19.193.19.461v.648q0 .269-.19.462-.183.186-.448.186h-5.912v2.005h5.091q.265 0 .448.193.19.186.19.454v.648q0 .269-.19.462-.183.186-.448.186h-5.09v2.032h5.898q.258 0 .441.186t.183.455v.662q0 .268-.19.461-.19.186-.455.186h-7.792q-.264 0-.455-.186-.19-.193-.19-.475zm20.431.358q0 .303-.353.303h-1.554q-.265 0-.57-.186-.306-.193-.475-.461l-1.195-1.923q-.428-.703-.862-1.054-.434-.358-1.045-.358h-1.46v3.348q0 .27-.19.455-.183.18-.448.18h-1.276q-.265 0-.455-.194-.19-.2-.19-.468v-8.565q0-.268.19-.468t.455-.2h1.276q.265 0 .448.2.19.2.19.468v3.3h1.46q.597 0 1.045-.33.455-.33.862-1.068l1.052-1.902q.36-.661.978-.668h1.567q.326 0 .326.29 0 .158-.115.378l-1.473 2.708q-.32.593-.72.979-.393.385-1.031.544.448.096.916.572.475.475.835 1.033l1.697 2.743q.115.2.115.344zm.978-.358v-8.578q0-.27.19-.455.19-.186.455-.186h7.826q.264 0 .448.193.19.193.19.461v.648q0 .269-.19.462-.184.186-.448.186h-5.912v2.005h5.09q.265 0 .448.193.19.186.19.454v.648q0 .269-.19.462-.183.186-.448.186h-5.09v2.032h5.898q.258 0 .441.186.184.186.184.455v.662q0 .268-.19.461-.19.186-.455.186h-7.792q-.265 0-.455-.186-.19-.193-.19-.475zm10.358.014v-8.579q0-.268.183-.461t.448-.193h5.179q4.106 0 4.106 3.845 0 3.837-4.106 3.837h-3.251v1.55q0 .27-.19.462-.184.186-.448.186h-1.277q-.264 0-.454-.186-.19-.193-.19-.461zm2.559-3.5h2.477q1.14 0 1.73-.386.591-.393.591-1.502 0-1.117-.59-1.503-.59-.392-1.73-.392h-2.478z" aria-label="АСТМА ТРЕКЕР" style="font-size:14.0057px;font-family:&quot;Days One&quot;;-inkscape-font-specification:&quot;Days One&quot;;fill:#666;stroke-width:.262607" transform="translate(-42.288 -110.835)"/><path d="M115.61 197.413a9.12 9.12 0 0 0 1.35-.525c.379-.189 1.05-.703 1.49-1.144.442-.44.972-1.15 1.179-1.577.206-.427 3.645-11.965 7.64-25.64 5.178-17.72 7.24-24.977 7.179-25.257a1.42 1.42 0 0 0-.361-.641c-.157-.142-5.154-1.675-11.687-3.585-6.277-1.835-11.445-3.368-11.484-3.408-.04-.04.385-1.643.943-3.563.558-1.92 1.11-3.752 1.228-4.07.127-.345.381-.679.63-.825.228-.135.64-.246.914-.246s3.707.938 7.63 2.084c3.922 1.146 7.322 2.182 7.556 2.303.234.122.517.441.631.714.118.282.168.661.116.886-.05.217-.378 1.408-.729 2.647-.619 2.189-.63 2.268-.406 2.74.127.268.392.56.589.65.197.09.455.164.574.164.118 0 .396-.094.618-.209.222-.114.474-.388.56-.61.087-.22.432-1.303.767-2.408.507-1.67.61-2.21.614-3.226.004-.984-.056-1.332-.31-1.809a7.222 7.222 0 0 0-.694-1.042c-.21-.249-.648-.608-.975-.798-.327-.19-4.046-1.356-8.265-2.59-7.11-2.08-7.737-2.239-8.568-2.177a4.787 4.787 0 0 0-1.682.451c-.432.211-.979.62-1.216.907a5.965 5.965 0 0 0-.659 1.003c-.125.264-.74 2.227-1.364 4.362a461.103 461.103 0 0 0-1.136 3.915c0 .018-.726-.183-1.614-.448-.887-.264-1.755-.481-1.929-.482-.173 0-.467.068-.652.152-.186.085-.409.268-.496.407-.087.14-2.288 7.539-4.892 16.443-2.604 8.905-4.779 16.37-4.833 16.587-.056.227-.022.584.081.832.099.238.369.532.6.651.254.131.58.183.822.13.221-.05.535-.23.697-.404.208-.222 1.643-4.929 4.876-15.987 2.52-8.62 4.62-15.71 4.666-15.756.046-.046 5.877 1.608 12.957 3.677 7.08 2.07 12.89 3.777 12.91 3.796.02.02-1.998 6.997-4.485 15.508-2.486 8.51-4.554 15.582-4.596 15.715-.067.216-.4.248-3.004.287l-2.93.044-.39.39c-.278.279-.39.537-.39.9 0 .364.112.622.39.9l.39.391 2.507.045c1.378.025 2.506.081 2.506.125s-.908 3.182-2.018 6.974c-1.11 3.792-2.088 7.027-2.173 7.188a7.246 7.246 0 0 1-.506.756c-.192.254-.715.641-1.16.86l-.81.398-14.016.04-14.016.04v-16.354h12.909c10.807 0 12.988-.033 13.395-.203.267-.112.555-.333.64-.492.086-.16.156-.46.156-.667 0-.208-.067-.502-.148-.653-.081-.152-.336-.374-.567-.493-.36-.186-1.699-.216-9.674-.216-5.09 0-9.255-.05-9.255-.112s.226-.897.502-1.856c.276-.958.501-1.913.501-2.121 0-.227-.167-.546-.419-.798-.278-.278-.564-.419-.852-.419-.244 0-.599.143-.814.328-.3.258-.525.81-1.066 2.616l-.685 2.29-3.24.072c-3.24.071-3.242.071-3.606.436-.259.26-.39.582-.453 1.112l-.089.746H73.742l-.403.346-.402.346v16.395l.402.346.403.346h4.125c4.093 0 4.127-.003 4.426-.322.166-.178.344-.493.395-.702.059-.235.007-.546-.134-.82-.125-.243-.352-.508-.504-.589-.165-.088-1.521-.147-3.368-.147H75.59V180.845h8.46v7.721c0 5.136.051 7.87.154 8.164.084.243.308.543.496.666.306.2 1.952.223 15.296.212 11.626-.01 15.1-.054 15.614-.195z" style="fill:#f2f2f2" transform="translate(-42.288 -110.835)"/></svg>