<?xml version="1.0" encoding="UTF-8" standalone="no"?>
<svg
  xmlns="http://www.w3.org/2000/svg"
  width="105.83334mm"
  height="105.83335mm"
  viewBox="0 0 105.83334 105.83335"
>
  <g id="layer1" transform="translate(-52.122917,-95.514585)">
    <path
      id="rect1"
      style="fill:#22a060;fill-opacity:1;stroke-width:0.264583"
      d="m 75.608652,100.14024 h 81.195238 v 74.43814 a 31.395207,31.395207 135 0 1 -31.39521,31.39521 H 50.970547 l 0,-81.19524 a 24.638105,24.638105 135 0 1 24.638105,-24.63811 z"
    />
    <path
      style="fill:#f2f2f2"
      d="m 116.75658,185.09049 c 0.3638,-0.10032 0.97116,-0.33651 1.34969,-0.52488 0.37854,-0.18836 1.0493,-0.70308 1.49059,-1.14383 0.44129,-0.44074 0.97143,-1.1505 1.17807,-1.57723 0.20665,-0.42674 3.64483,-11.96476 7.64039,-25.64005 5.17744,-17.72042 7.23988,-24.97694 7.17844,-25.25672 -0.0474,-0.2159 -0.20971,-0.5043 -0.36063,-0.64089 -0.15709,-0.14216 -5.15385,-1.67484 -11.68694,-3.58479 -6.27689,-1.83504 -11.44482,-3.36874 -11.48428,-3.4082 -0.0395,-0.0395 0.38502,-1.64303 0.9433,-3.56348 0.55828,-1.92045 1.11092,-3.75205 1.22809,-4.07024 0.12697,-0.34476 0.38128,-0.67788 0.62941,-0.82446 0.229,-0.13527 0.64059,-0.24595 0.91465,-0.24595 0.27406,0 3.70729,0.93772 7.6294,2.08381 3.9221,1.1461 7.32243,2.18276 7.55628,2.30368 0.23465,0.12135 0.51759,0.44103 0.63139,0.7134 0.11807,0.28259 0.16738,0.66156 0.11536,0.88664 -0.05,0.2162 -0.3777,1.40725 -0.72829,2.64676 -0.61906,2.18873 -0.63078,2.26769 -0.40651,2.74029 0.127,0.26765 0.39215,0.56009 0.58922,0.64988 0.19706,0.0898 0.45525,0.16326 0.57375,0.16326 0.1185,0 0.39673,-0.0937 0.61829,-0.20832 0.22156,-0.11457 0.47385,-0.3888 0.56066,-0.60939 0.0868,-0.22058 0.43182,-1.30439 0.76671,-2.40845 0.50698,-1.6714 0.60965,-2.21139 0.61343,-3.22616 0.004,-0.98466 -0.0558,-1.33216 -0.30951,-1.80902 -0.17273,-0.32463 -0.48524,-0.79369 -0.69447,-1.04235 -0.20924,-0.24866 -0.64786,-0.60778 -0.97471,-0.79805 -0.32685,-0.19026 -4.04626,-1.35567 -8.26536,-2.5898 -7.10898,-2.07945 -7.73682,-2.23897 -8.56802,-2.17694 -0.56946,0.0425 -1.18349,0.20714 -1.68184,0.45096 -0.43171,0.21121 -0.97893,0.61938 -1.21604,0.90704 -0.23711,0.28766 -0.53361,0.73902 -0.65889,1.00303 -0.12528,0.26401 -0.73914,2.22703 -1.36413,4.36227 -0.62499,2.13524 -1.13634,3.89697 -1.13634,3.91496 0,0.018 -0.72589,-0.18367 -1.61308,-0.44812 -0.88719,-0.26445 -1.75522,-0.48142 -1.92895,-0.48217 -0.17373,-7.4e-4 -0.46756,0.0678 -0.65296,0.15224 -0.1854,0.0845 -0.40823,0.26749 -0.49517,0.40672 -0.087,0.13922 -2.28844,7.53866 -4.892229,16.44321 -2.60377,8.90454 -4.77864,16.36877 -4.83305,16.58717 -0.0565,0.2267 -0.0218,0.58339 0.0809,0.83123 0.0989,0.23877 0.36901,0.53196 0.60024,0.65154 0.2533,0.13098 0.5801,0.18234 0.82211,0.12919 0.22093,-0.0485 0.53437,-0.23006 0.69655,-0.40341 0.20806,-0.22239 1.64357,-4.92872 4.876339,-15.98711 2.5198,-8.61956 4.61932,-15.70979 4.66559,-15.75606 0.0463,-0.0463 5.87703,1.60861 12.95725,3.67751 7.08021,2.0689 12.8895,3.77706 12.90952,3.79592 0.02,0.0189 -1.9979,6.99717 -4.48425,15.50736 -2.48635,8.51018 -4.55453,15.58232 -4.59595,15.71585 -0.0669,0.21581 -0.40082,0.24767 -3.00467,0.28677 l -2.92937,0.044 -0.39008,0.3904 c -0.27813,0.27836 -0.39008,0.53666 -0.39008,0.90007 0,0.36337 0.11195,0.62172 0.39003,0.90006 l 0.39003,0.3904 2.50635,0.0451 c 1.37848,0.0248 2.50634,0.0809 2.50634,0.12471 0,0.0438 -0.90811,3.18219 -2.01802,6.97422 -1.10992,3.79203 -2.08782,7.0266 -2.17313,7.18792 -0.0853,0.16133 -0.31279,0.50143 -0.50553,0.75578 -0.19273,0.25435 -0.71499,0.64149 -1.16057,0.86031 l -0.81015,0.39785 -14.01587,0.0399 -14.015879,0.0399 v -8.177 -8.177 h 12.909239 c 10.80735,0 12.98834,-0.033 13.39496,-0.20293 0.26713,-0.11162 0.55542,-0.33321 0.64063,-0.49243 0.0852,-0.15921 0.15492,-0.45927 0.15492,-0.66679 0,-0.20753 -0.0664,-0.50145 -0.14763,-0.65318 -0.0812,-0.15172 -0.33609,-0.37331 -0.56642,-0.49242 -0.36084,-0.18659 -1.69942,-0.21656 -9.67423,-0.21656 -5.090509,0 -9.255459,-0.0504 -9.255459,-0.11207 0,-0.0616 0.22583,-0.89649 0.50185,-1.85523 0.27601,-0.95874 0.50185,-1.91338 0.50185,-2.12142 0,-0.22691 -0.16772,-0.54598 -0.41913,-0.79739 -0.27827,-0.27827 -0.56471,-0.41913 -0.85231,-0.41913 -0.24433,0 -0.59906,0.14267 -0.81363,0.32724 -0.30014,0.25817 -0.52517,0.81051 -1.06611,2.61678 l -0.68566,2.28953 -3.24051,0.0717 c -3.23825,0.0716 -3.24077,0.0719 -3.60519,0.4367 -0.2589,0.25914 -0.3903,0.58145 -0.45305,1.11123 l -0.0884,0.74623 h -5.13389 -5.13389 l -0.4023,0.34605 -0.40231,0.34604 v 8.19777 8.19777 l 0.40231,0.34605 0.4023,0.34605 h 4.12518 c 4.09314,0 4.12751,-0.003 4.4263,-0.32262 0.16563,-0.17744 0.34343,-0.49311 0.39513,-0.70148 0.0583,-0.235 0.007,-0.54646 -0.13424,-0.82021 -0.12553,-0.24275 -0.35237,-0.50779 -0.50409,-0.58899 -0.16474,-0.0882 -1.52145,-0.14763 -3.36806,-0.14763 h -3.0922 v -6.30894 -6.30893 h 4.22985 4.22985 v 7.72139 c 0,5.13613 0.0516,7.8694 0.15412,8.16347 0.0848,0.24315 0.30832,0.54314 0.4968,0.66663 0.30582,0.20038 1.95149,0.22316 15.295609,0.21172 11.62571,-0.01 15.10011,-0.0534 15.61437,-0.19521 z"
    />
  </g>
</svg>

